<svg width="41" height="42" viewBox="0 0 41 42" fill="none" xmlns="http://www.w3.org/2000/svg">
<rect y="0.0410156" width="41" height="41" rx="20.5" fill="white"/>
<path d="M27 16.041C27 15.4887 26.5523 15.041 26 15.041L17 15.041C16.4477 15.041 16 15.4887 16 16.041C16 16.5933 16.4477 17.041 17 17.041L25 17.041L25 25.041C25 25.5933 25.4477 26.041 26 26.041C26.5523 26.041 27 25.5933 27 25.041L27 16.041ZM13 29.041L13.7071 29.7481L26.7071 16.7481L26 16.041L25.2929 15.3339L12.2929 28.3339L13 29.041Z" fill="#C4589F"/>
</svg>
