<svg width="31" height="32" viewBox="0 0 31 32" fill="none" xmlns="http://www.w3.org/2000/svg">
<circle cx="15.5" cy="16.041" r="15.5" fill="white"/>
<path d="M14.208 19.413C14.208 19.045 14.2427 18.6903 14.312 18.349C14.3867 18.0023 14.5067 17.6823 14.672 17.389C14.816 17.1063 14.976 16.8823 15.152 16.717C15.328 16.5463 15.5253 16.3783 15.744 16.213C15.9627 16.0423 16.2053 15.8157 16.472 15.533C16.6907 15.293 16.8347 15.0557 16.904 14.821C16.9733 14.581 17.008 14.325 17.008 14.053C17.008 13.877 16.9893 13.7117 16.952 13.557C16.9147 13.4023 16.848 13.269 16.752 13.157C16.6027 12.9597 16.4107 12.821 16.176 12.741C15.9413 12.6557 15.6907 12.613 15.424 12.613C15.2053 12.613 14.9947 12.6423 14.792 12.701C14.5947 12.7543 14.4267 12.8397 14.288 12.957C14.128 13.085 14.0107 13.2423 13.936 13.429C13.8613 13.6157 13.8267 13.821 13.832 14.045H11.8C11.8533 13.5117 11.9973 13.0183 12.232 12.565C12.472 12.1063 12.7867 11.741 13.176 11.469C13.48 11.245 13.8213 11.077 14.2 10.965C14.584 10.853 14.968 10.797 15.352 10.797C15.9387 10.797 16.4907 10.8877 17.008 11.069C17.5307 11.2503 17.9653 11.549 18.312 11.965C18.552 12.237 18.7333 12.5517 18.856 12.909C18.984 13.2663 19.048 13.629 19.048 13.997C19.048 14.5463 18.928 15.0477 18.688 15.501C18.4533 15.9543 18.1547 16.373 17.792 16.757C17.6213 16.9383 17.4587 17.0983 17.304 17.237C17.1493 17.3757 17.0053 17.5117 16.872 17.645C16.744 17.773 16.6373 17.909 16.552 18.053C16.4027 18.3037 16.3147 18.517 16.288 18.693C16.2613 18.8637 16.248 19.1037 16.248 19.413H14.208ZM14.224 22.541V20.421H16.248V22.541H14.224Z" fill="#C4589F"/>
</svg>
