<svg width="30" height="31" viewBox="0 0 30 31" fill="none" xmlns="http://www.w3.org/2000/svg">
<path opacity="0.2" d="M27.8947 2.35527C25.7895 0.25 22.4016 0.25 15.6252 0.25H14.3748C7.59844 0.25 4.21055 0.25 2.10527 2.35527C0 4.46055 0 7.84844 0 14.6248V15.8752C0 22.6516 0 26.0395 2.10527 28.1447C4.21055 30.25 7.59844 30.25 14.3748 30.25H15.6252C22.4016 30.25 25.7895 30.25 27.8947 28.1447C30 26.0395 30 22.6516 30 15.8752V14.6248C30 7.84844 30 4.46055 27.8947 2.35527ZM24.3791 21.5002H22.1912C21.3568 21.5002 21.1125 20.8346 19.6289 19.3516C18.3305 18.1 17.7744 17.9377 17.4498 17.9377C17.0092 17.9377 16.8773 18.0625 16.8773 18.6877V20.6494C16.8773 21.1873 16.7057 21.5002 15.3146 21.5002C12.9967 21.5002 10.449 20.0928 8.64141 17.4977C5.9291 13.6967 5.1873 10.8232 5.1873 10.2437C5.1873 9.91914 5.3127 9.625 5.9373 9.625H8.12578C8.68476 9.625 8.89512 9.86992 9.10488 10.4752C10.1748 13.5918 11.9795 16.3158 12.7213 16.3158C12.999 16.3158 13.1268 16.1875 13.1268 15.4814V12.26C13.0453 10.777 12.2572 10.6551 12.2572 10.1277C12.2572 9.8834 12.4664 9.625 12.8139 9.625H16.2521C16.7162 9.625 16.8773 9.87285 16.8773 10.4289V14.7631C16.8773 15.226 17.0789 15.3883 17.2178 15.3883C17.4961 15.3883 17.7281 15.226 18.2379 14.7162C19.8141 12.9549 20.9268 10.2437 20.9268 10.2437C21.0662 9.91914 21.3223 9.625 21.8789 9.625H24.0668C24.7283 9.625 24.8678 9.96543 24.7283 10.4289C24.45 11.7039 21.7846 15.458 21.7846 15.458C21.5525 15.8289 21.46 16.0141 21.7846 16.4312C22.0166 16.7559 22.7812 17.4045 23.291 18.0074C24.2309 19.0645 24.9393 19.9562 25.1367 20.5709C25.3172 21.1873 25.0043 21.5002 24.3791 21.5002Z" fill="#404040"/>
</svg>
