<svg width="30" height="31" viewBox="0 0 30 31" fill="none" xmlns="http://www.w3.org/2000/svg">
<path opacity="0.2" fill-rule="evenodd" clip-rule="evenodd" d="M15 0.25C6.71602 0.25 0 6.96602 0 15.25C0 23.534 6.71602 30.25 15 30.25C23.284 30.25 30 23.534 30 15.25C30 6.96602 23.284 0.25 15 0.25ZM21.9527 10.4512C21.7271 12.823 20.7504 18.5787 20.2535 21.2354C20.0432 22.3598 19.6289 22.7365 19.2281 22.7734C18.3574 22.8537 17.6959 22.1975 16.8521 21.6443C15.532 20.7789 14.7861 20.2404 13.5047 19.3961C12.0234 18.4199 12.9838 17.8838 13.8275 17.0072C14.0484 16.7775 17.8863 13.2865 17.9607 12.9701C17.9701 12.9303 17.9789 12.7826 17.891 12.7047C17.8031 12.6268 17.6736 12.6537 17.5805 12.6748C17.448 12.7047 15.3387 14.0986 11.2535 16.8566C10.6547 17.268 10.1127 17.4678 9.62637 17.4578C9.09082 17.4461 8.06074 17.1549 7.29492 16.9059C6.35566 16.6006 5.60918 16.4389 5.67422 15.9203C5.70762 15.6502 6.07969 15.3742 6.78984 15.0918C11.1627 13.1863 14.0783 11.9307 15.5373 11.3236C19.7033 9.59107 20.5688 9.28984 21.1329 9.27988C21.8397 9.2674 22.0103 9.85076 21.9527 10.4512Z" fill="#404040"/>
</svg>
