<svg width="30" height="31" viewBox="0 0 30 31" fill="none" xmlns="http://www.w3.org/2000/svg">
<g opacity="0.2">
<path d="M13.0714 12.2976V17.7738L18.119 15.0595L13.0714 12.2976Z" fill="#404040"/>
<path d="M22.4762 0.25H7.5C3.38095 0.25 0 3.63095 0 7.77381V22.75C0 26.869 3.38095 30.25 7.5 30.25H22.4762C26.619 30.25 30 26.869 30 22.7262V7.77381C30 3.63095 26.619 0.25 22.4762 0.25ZM24.2857 15.9881C24.2857 17.5595 24.1429 19.1548 24.1429 19.1548C24.1429 19.1548 23.9762 20.4881 23.4286 21.0833C22.7143 21.869 21.9286 21.869 21.5714 21.9167C18.9524 22.1071 15.0238 22.131 15.0238 22.131C15.0238 22.131 10.1429 22.0595 8.64286 21.9167C8.2381 21.8452 7.28571 21.869 6.57143 21.0833C6 20.4881 5.85714 19.1548 5.85714 19.1548C5.85714 19.1548 5.71429 17.5595 5.71429 15.9881V14.5119C5.71429 12.9405 5.85714 11.3452 5.85714 11.3452C5.85714 11.3452 6.02381 10.0119 6.57143 9.41667C7.28571 8.63095 8.07143 8.60714 8.42857 8.55952C11.0714 8.36905 15 8.34524 15 8.34524C15 8.34524 18.9286 8.36905 21.5476 8.55952C21.9048 8.60714 22.7143 8.63095 23.4286 9.39286C24 9.9881 24.1429 11.3452 24.1429 11.3452C24.1429 11.3452 24.2857 12.9405 24.2857 14.5119V15.9881Z" fill="#404040"/>
</g>
</svg>
