<svg width="41" height="42" viewBox="0 0 41 42" fill="none" xmlns="http://www.w3.org/2000/svg">
<rect y="0.782471" width="41" height="41" rx="20.5" fill="white"/>
<path d="M28 14.7825C28 14.2302 27.5523 13.7825 27 13.7825L18 13.7825C17.4477 13.7825 17 14.2302 17 14.7825C17 15.3348 17.4477 15.7825 18 15.7825L26 15.7825L26 23.7825C26 24.3348 26.4477 24.7825 27 24.7825C27.5523 24.7825 28 24.3348 28 23.7825L28 14.7825ZM14 27.7825L14.7071 28.4896L27.7071 15.4896L27 14.7825L26.2929 14.0754L13.2929 27.0754L14 27.7825Z" fill="#C4589F"/>
</svg>
