<svg width="27" height="27" viewBox="0 0 27 27" fill="none" xmlns="http://www.w3.org/2000/svg">
<path d="M21.7322 18.1191H9.29994C7.8305 18.1191 6.57043 17.0703 6.30368 15.6253L3.91114 2.8645C3.8074 2.40478 3.39247 2.07227 2.92036 2.07227H1.51561C0.954691 2.07227 0.5 1.61757 0.5 1.05664C0.5 0.495711 0.954691 0.0410156 1.51561 0.0410156H2.92036C4.34755 0.0410156 5.60052 1.05395 5.89956 2.44947C5.90139 2.458 5.90312 2.46653 5.90474 2.47511L6.172 3.90034H25.4841C26.1093 3.90034 26.5894 4.46198 26.4859 5.08293L24.7375 15.5731C24.4918 17.0484 23.2278 18.1191 21.7322 18.1191ZM6.55281 5.93164L8.30063 15.2538C8.3901 15.7383 8.81011 16.0879 9.29994 16.0879H21.7322C22.2307 16.0879 22.652 15.731 22.734 15.2393L24.2852 5.93164H6.55281Z" fill="white"/>
<path d="M9.99168 13.2256L9.24088 9.16305C8.99678 7.84254 10.9939 7.47163 11.2383 8.79387L11.9891 12.8564C12.2332 14.177 10.2362 14.549 9.99168 13.2256Z" fill="white"/>
<path d="M19.0095 12.8739L19.6869 8.81144C19.9077 7.48712 21.9116 7.81908 21.6905 9.14554L21.0131 13.208C20.7883 14.5563 18.7902 14.1895 19.0095 12.8739Z" fill="white"/>
<path d="M9.43741 26.041C7.75738 26.041 6.39056 24.6742 6.39056 22.9941C6.39056 21.3141 7.75738 19.9473 9.43741 19.9473C11.1174 19.9473 12.4842 21.3141 12.4842 22.9941C12.4842 24.6742 11.1174 26.041 9.43741 26.041ZM9.43741 21.9785C8.8774 21.9785 8.42179 22.4341 8.42179 22.9941C8.42179 23.5542 8.8774 24.0098 9.43741 24.0098C9.99742 24.0098 10.453 23.5542 10.453 22.9941C10.453 22.4341 9.99742 21.9785 9.43741 21.9785Z" fill="white"/>
<path d="M21.6248 26.041C19.9447 26.041 18.5779 24.6742 18.5779 22.9941C18.5779 21.3141 19.9447 19.9473 21.6248 19.9473C23.3048 19.9473 24.6716 21.3141 24.6716 22.9941C24.6716 24.6742 23.3048 26.041 21.6248 26.041ZM21.6248 21.9785C21.0648 21.9785 20.6092 22.4341 20.6092 22.9941C20.6092 23.5542 21.0648 24.0098 21.6248 24.0098C22.1848 24.0098 22.6404 23.5542 22.6404 22.9941C22.6404 22.4341 22.1848 21.9785 21.6248 21.9785Z" fill="white"/>
<path d="M14.5155 13.041V8.97852C14.5155 7.63576 16.5467 7.63383 16.5467 8.97852V13.041C16.5467 14.3837 14.5155 14.3857 14.5155 13.041Z" fill="white"/>
</svg>
