<svg width="21" height="21" viewBox="0 0 21 21" fill="none" xmlns="http://www.w3.org/2000/svg">
<path fill-rule="evenodd" clip-rule="evenodd" d="M12.9303 12.048C12.5518 12.2027 12.31 12.7953 12.0646 13.098C11.9389 13.2531 11.7889 13.2773 11.5955 13.1996C10.1748 12.6336 9.08575 11.6855 8.30177 10.3781C8.16896 10.1754 8.19279 10.0152 8.35294 9.82695C8.58966 9.54805 8.88732 9.23125 8.95138 8.85547C9.09356 8.02422 8.00685 5.4457 6.5717 6.61406C2.44204 9.9793 13.4607 18.9047 15.4494 14.0773C16.0119 12.709 13.5576 11.791 12.9303 12.048ZM10.5428 19.132C9.08224 19.132 7.64514 18.7437 6.38694 18.0086C6.18499 17.8902 5.94085 17.859 5.71507 17.9203L2.9811 18.6707L3.93344 16.5727C4.06312 16.2871 4.02992 15.9547 3.84672 15.7008C2.82797 14.2887 2.2893 12.6215 2.2893 10.8789C2.2893 6.32773 5.99163 2.62539 10.5428 2.62539C15.0939 2.62539 18.7959 6.32773 18.7959 10.8789C18.7959 15.4297 15.0935 19.132 10.5428 19.132ZM10.5428 0.878906C5.02874 0.878906 0.542829 5.36484 0.542829 10.8789C0.542829 12.8188 1.09361 14.6816 2.14009 16.2984L0.620954 19.6441C0.48072 19.9531 0.531892 20.3148 0.751422 20.5723C0.920171 20.7695 1.16431 20.8789 1.41626 20.8789C1.97954 20.8789 5.05101 19.9137 5.83264 19.6992C7.27756 20.4723 8.89825 20.8789 10.5428 20.8789C16.0564 20.8789 20.5427 16.3926 20.5427 10.8789C20.5427 5.36484 16.0564 0.878906 10.5428 0.878906Z" fill="white"/>
</svg>
